# xmcd CD database file
#
# Track frame offsets:
#	150
#	17380
#	37112
#
# Disc length: 710 seconds
#
# Revision: 0
# Processed by: cddbd v1.5.1PL2 Copyright (c) Steve Scherf et al.
# Submitted via: CDex 1.51
#
DISCID=1902c403
DTITLE=Matchbox 20 - 3am [CDS)
DYEAR=2000
DGENRE=Rock
TTITLE0=3am
TTITLE1=Push
TTITLE2=Shame
EXTD=YEAR: 2000
EXTT0=
EXTT1=
EXTT2=
PLAYORDER=
